<svg width="43" height="43" viewBox="0 0 43 43" fill="none" xmlns="http://www.w3.org/2000/svg">
<path id="Vector" d="M35.6677 11.7227L9.45029 0.181877C8.92571 -0.0481042 8.3313 -0.0604558 7.79762 0.147536C7.53388 0.252018 7.29342 0.407647 7.09008 0.605458C6.88674 0.803269 6.72455 1.03935 6.61284 1.30012L0.173853 16.3244C-0.0503684 16.8476 -0.0576198 17.4384 0.153694 17.9668C0.365008 18.4953 0.777582 18.9182 1.30068 19.1426L16.2327 25.5408L13.5712 32.1944H4.29266V25.7554H0V42.9261H4.29266V36.4871H13.5712C15.3377 36.4871 16.9024 35.4268 17.5548 33.787L20.1777 27.2321L27.516 30.3765C28.0367 30.6003 28.6249 30.6089 29.1521 30.4007C29.6793 30.1924 30.1026 29.784 30.3298 29.2647L36.7688 14.5473C36.9966 14.0266 37.0086 13.4369 36.8022 12.9073C36.5958 12.3778 36.1878 11.9518 35.6677 11.7227ZM38.4837 30.8465L34.4958 29.2539L38.7842 18.5223L42.7721 20.1127L38.4837 30.8465Z" fill="#D1AC53"/>
</svg>
