<svg width="91" height="91" viewBox="0 0 91 91" fill="none" xmlns="http://www.w3.org/2000/svg">
<g id="clarity:building-solid">
<path id="Vector" d="M78.3613 20.2223H55.6113V83.4167H83.4169V25.2778C83.4169 23.937 82.8842 22.6511 81.9361 21.703C80.988 20.7549 79.7021 20.2223 78.3613 20.2223ZM65.7224 63.1945H60.6669V58.139H65.7224V63.1945ZM65.7224 50.5556H60.6669V45.5001H65.7224V50.5556ZM65.7224 37.9167H60.6669V32.8612H65.7224V37.9167ZM75.8335 63.1945H70.778V58.139H75.8335V63.1945ZM75.8335 50.5556H70.778V45.5001H75.8335V50.5556ZM75.8335 37.9167H70.778V32.8612H75.8335V37.9167Z" fill="#E2BA64"/>
<path id="Vector_2" d="M45.1959 7.5835H15.4692C14.048 7.5835 12.6849 8.14809 11.6799 9.15308C10.6749 10.1581 10.1104 11.5211 10.1104 12.9424V83.4168H22.7492V75.8335H37.9159V83.4168H50.5548V12.9424C50.5548 11.5211 49.9902 10.1581 48.9852 9.15308C47.9802 8.14809 46.6172 7.5835 45.1959 7.5835ZM22.7492 63.1946H17.6937V58.139H22.7492V63.1946ZM22.7492 50.5557H17.6937V45.5002H22.7492V50.5557ZM22.7492 37.9168H17.6937V32.8613H22.7492V37.9168ZM22.7492 25.2779H17.6937V20.2224H22.7492V25.2779ZM32.8604 63.1946H27.8048V58.139H32.8604V63.1946ZM32.8604 50.5557H27.8048V45.5002H32.8604V50.5557ZM32.8604 37.9168H27.8048V32.8613H32.8604V37.9168ZM32.8604 25.2779H27.8048V20.2224H32.8604V25.2779ZM42.9715 63.1946H37.9159V58.139H42.9715V63.1946ZM42.9715 50.5557H37.9159V45.5002H42.9715V50.5557ZM42.9715 37.9168H37.9159V32.8613H42.9715V37.9168ZM42.9715 25.2779H37.9159V20.2224H42.9715V25.2779Z" fill="#E2BA64"/>
</g>
</svg>
