<svg width="54" height="36" viewBox="0 0 54 36" fill="none" xmlns="http://www.w3.org/2000/svg">
<path id="Vector" d="M53.4194 0H36C36 0 34.8387 9.29032 37.1613 18.5806C38.095 20.1368 40.4013 20.9752 42.9677 21.1877V32.5161H42.581L38.3226 36H51.0968L46.9347 32.5161H46.4516V21.103C48.9135 20.7836 51.1699 19.9254 52.2581 18.5806C54.5806 10.4516 53.4194 0 53.4194 0ZM52.2581 6.96774H37.1613V1.16129H52.2581V6.96774ZM23.8065 32.5161H17.4194V22.6452L30.1935 3.48387H0L12.7742 22.6452V32.5161H6.3871C5.92511 32.5161 5.48204 32.6996 5.15536 33.0263C4.82869 33.353 4.64516 33.7961 4.64516 34.2581C4.64516 34.7201 4.82869 35.1631 5.15536 35.4898C5.48204 35.8165 5.92511 36 6.3871 36H23.8065C24.2684 36 24.7115 35.8165 25.0382 35.4898C25.3649 35.1631 25.5484 34.7201 25.5484 34.2581C25.5484 33.7961 25.3649 33.353 25.0382 33.0263C24.7115 32.6996 24.2684 32.5161 23.8065 32.5161Z" fill="#D1AC53"/>
</svg>
