<svg width="60" height="36" viewBox="0 0 60 36" fill="none" xmlns="http://www.w3.org/2000/svg">
<path id="Vector" d="M47.5 12.7742C46.1 12.7742 44.775 13.0297 43.525 13.4245L36.15 0H27.5V3.48387H33.85L36.05 7.47871L30 20.0439L25.575 10.3355C26.25 10.1032 26.85 9.47613 26.85 8.70968C26.85 7.75742 26.025 6.96774 25 6.96774H20C18.95 6.96774 18.1 7.75742 18.1 8.70968C18.1 9.66193 18.95 10.4516 20 10.4516H21.525L27.15 22.6452H24.8C23.9 17.071 18.75 12.7742 12.5 12.7742C5.6 12.7742 0 17.9768 0 24.3871C0 30.7974 5.6 36 12.5 36C18.75 36 23.9 31.7032 24.8 26.129H31.25L38.225 11.4503L40.2 15.0039C38.5942 16.0725 37.2851 17.4808 36.3809 19.1124C35.4767 20.7439 35.0034 22.552 35 24.3871C35 30.7974 40.6 36 47.5 36C54.4 36 60 30.7974 60 24.3871C60 17.9768 54.4 12.7742 47.5 12.7742ZM12.5 32.5161C7.675 32.5161 3.75 28.8697 3.75 24.3871C3.75 19.9045 7.675 16.2581 12.5 16.2581C16.675 16.2581 20.175 18.9987 21.025 22.6452H10V26.129H21.025C20.6004 27.9369 19.5237 29.5558 17.9733 30.7174C16.4229 31.879 14.4918 32.5137 12.5 32.5161ZM47.5 32.5161C42.675 32.5161 38.75 28.8697 38.75 24.3871C38.75 21.8787 40 19.6723 41.925 18.1858L46.425 26.3613L49.725 24.689L45.25 16.56C45.975 16.3974 46.725 16.2581 47.5 16.2581C52.325 16.2581 56.25 19.9045 56.25 24.3871C56.25 28.8697 52.325 32.5161 47.5 32.5161Z" fill="#DCAA4C"/>
</svg>
