<svg width="50" height="50" viewBox="0 0 50 50" fill="none" xmlns="http://www.w3.org/2000/svg">
<path id="Vector" d="M49.5802 46.5818L3.02203 0L0 2.99842L14.1186 17.1642C10.7424 20.3751 8.90083 25.3568 9.18415 30.0787C9.32581 31.2592 9.46746 32.4396 9.86883 33.6201C10.1994 35.0367 10.8368 36.4533 11.5451 37.7046C14.095 41.7891 18.51 44.7167 23.2555 45.3069C28.308 45.9444 33.7146 45.0236 37.5865 41.5294C37.7518 41.3877 37.8699 41.1988 38.0351 41.0336L46.5818 49.5802L49.5802 46.5818ZM18.1558 29.0871C17.6128 29.3232 17.0462 29.1815 16.5976 28.8038C16.4636 28.6915 16.3515 28.5554 16.267 28.4024C13.9061 25.3568 13.2922 21.1542 14.5199 17.5184L17.6364 20.6348C17.6364 22.8305 17.9905 25.0262 18.7933 27.1275C18.8877 27.3636 18.9821 27.5997 18.9821 27.9066C18.9821 28.426 18.628 28.8982 18.1558 29.0871ZM31.6133 37.2324C30.9522 37.799 29.8662 38.4129 29.0162 38.649C26.372 39.5934 23.7277 38.2712 22.1695 36.713C24.979 36.0519 26.6553 33.9743 27.1511 31.873C27.2691 31.33 27.2691 30.7634 27.2219 30.2203L32.7938 35.7686C32.4396 36.3116 32.0619 36.831 31.6133 37.2324ZM42.0488 33.0299L20.1626 11.1674C21.2723 9.25498 22.6889 7.53148 24.436 6.1149C26.1123 4.76915 28.0719 3.54145 30.3148 2.99842C28.0719 7.36621 28.851 13.0561 32.3688 16.5031C33.8798 17.9905 35.6742 19.0058 37.256 20.4223C37.8699 21.0362 38.5309 21.65 39.0739 22.3583C39.0739 22.3583 40.3961 24.2471 40.8919 25.3331L41.1988 25.947C42.1432 28.2371 42.3793 30.6689 42.0488 33.0299Z" fill="#D1AC53"/>
</svg>
