<svg width="42" height="42" viewBox="0 0 42 42" fill="none" xmlns="http://www.w3.org/2000/svg">
<path id="Vector" d="M14.4565 37.9649C14.6137 38.1353 14.6972 38.3608 14.6891 38.5924C14.6809 38.824 14.5816 39.0431 14.4129 39.2019L12.5154 40.9762C12.346 41.1336 12.121 41.2174 11.8899 41.209C11.6588 41.2006 11.4404 41.1009 11.2828 40.9317L0.232663 29.0228C0.075634 28.8523 -0.00777188 28.6268 0.000570644 28.3951C0.00891317 28.1635 0.10833 27.9445 0.277217 27.7858L2.17729 26.0141C2.26113 25.9361 2.35953 25.8753 2.46686 25.8353C2.5742 25.7953 2.68837 25.7769 2.80284 25.781C2.91731 25.7851 3.02985 25.8118 3.13402 25.8594C3.23819 25.9071 3.33194 25.9748 3.40993 26.0587L14.4565 37.9649ZM28.5564 15.5572C28.7134 15.7277 28.7968 15.9532 28.7885 16.1849C28.7801 16.4165 28.6807 16.6355 28.5118 16.7942L16.5698 27.95C16.4003 28.1074 16.1754 28.1912 15.9442 28.1828C15.7131 28.1745 15.4948 28.0747 15.3371 27.9055L12.4866 24.8295C12.3296 24.6591 12.2462 24.4335 12.2545 24.2019C12.2628 23.9703 12.3623 23.7513 12.5311 23.5925L24.4706 12.4367C24.5543 12.3587 24.6527 12.2979 24.7599 12.258C24.8672 12.218 24.9813 12.1995 25.0957 12.2036C25.2101 12.2078 25.3226 12.2344 25.4267 12.2821C25.5307 12.3297 25.6244 12.3974 25.7023 12.4813L28.5564 15.5572ZM18.5196 34.1674C18.8464 34.5195 18.8263 35.0759 18.4751 35.4044L16.575 37.1778C16.4912 37.2559 16.3928 37.3166 16.2854 37.3566C16.1781 37.3966 16.0639 37.4151 15.9495 37.411C15.835 37.4068 15.7225 37.3802 15.6183 37.3325C15.5141 37.2849 15.4204 37.2172 15.3424 37.1333L4.29838 25.2244C4.14124 25.054 4.05768 24.8286 4.06586 24.5969C4.07404 24.3653 4.17329 24.1463 4.34206 23.9874L6.23863 22.2149C6.40807 22.0575 6.63305 21.9737 6.86417 21.9821C7.0953 21.9904 7.31365 22.0902 7.47128 22.2594L18.5196 34.1674ZM36.9202 15.9844C37.0771 16.155 37.1604 16.3806 37.1518 16.6122C37.1433 16.8439 37.0438 17.0628 36.8748 17.2214L34.9756 18.9948C34.8061 19.1524 34.581 19.2363 34.3498 19.2281C34.1185 19.2199 33.8999 19.1203 33.742 18.9511L22.6963 7.04489C22.5389 6.87463 22.4552 6.64908 22.4634 6.41739C22.4716 6.18569 22.571 5.96662 22.74 5.80788L24.6444 4.03011C24.7282 3.95209 24.8265 3.89134 24.9338 3.85135C25.041 3.81135 25.1551 3.7929 25.2695 3.79704C25.3839 3.80117 25.4964 3.82782 25.6005 3.87546C25.7046 3.9231 25.7983 3.99079 25.8762 4.07466L36.9202 15.9844ZM40.9772 12.193C41.134 12.3637 41.2173 12.5894 41.209 12.8211C41.2006 13.0528 41.1013 13.2719 40.9326 13.4309L39.0369 15.2034C38.9532 15.2815 38.8549 15.3423 38.7477 15.3824C38.6404 15.4224 38.5264 15.441 38.412 15.4369C38.2976 15.4328 38.1851 15.4063 38.081 15.3587C37.9768 15.3112 37.8831 15.2435 37.8051 15.1597L26.7611 3.24824C26.6042 3.07763 26.5207 2.85204 26.5289 2.62033C26.5371 2.38863 26.6362 2.16948 26.8048 2.01036L28.7023 0.234338C28.7859 0.156178 28.884 0.0952914 28.9912 0.0551716C29.0984 0.0150518 29.2124 -0.00351147 29.3268 0.000546807C29.4411 0.00460508 29.5536 0.0312051 29.6576 0.0788205C29.7617 0.126436 29.8553 0.19413 29.9332 0.278018L40.9772 12.193Z" fill="#D1AC53"/>
</svg>
