<svg width="35" height="36" viewBox="0 0 35 36" fill="none" xmlns="http://www.w3.org/2000/svg">
<path id="Vector" fill-rule="evenodd" clip-rule="evenodd" d="M7.56796 1.24839C7.73926 0.795449 8.07443 0.423363 8.50708 0.205844C8.93974 -0.0116745 9.4383 -0.0587576 9.90403 0.0739218L19.1788 2.71648C19.645 2.84946 20.0442 3.15292 20.2971 3.56659C20.55 3.98027 20.6381 4.47392 20.5438 4.94953L17.8497 18.6105C17.4857 20.4544 16.4789 22.1091 15.0086 23.2798C13.5384 24.4506 11.7002 25.0613 9.82161 25.0031L8.09081 31.0738L9.99675 31.6173C10.4896 31.7576 10.9065 32.088 11.1557 32.5358C11.405 32.9836 11.4661 33.512 11.3258 34.0048C11.1854 34.4977 10.855 34.9146 10.4072 35.1638C9.95946 35.4131 9.43103 35.4742 8.93818 35.3338L5.2628 34.283C5.20191 34.2688 5.14174 34.2516 5.08251 34.2315L1.40198 33.1832C0.909134 33.0425 0.492369 32.7118 0.243374 32.2638C-0.00562229 31.8158 -0.0664529 31.2872 0.0742638 30.7944C0.214981 30.3015 0.545718 29.8847 0.993717 29.6357C1.44172 29.3867 1.97028 29.3259 2.46313 29.4666L4.37422 30.0127L6.10502 23.942C4.47833 23.001 3.23852 21.5131 2.60647 19.7433C1.97441 17.9736 1.99116 16.0369 2.65372 14.2783L7.56796 1.24839ZM8.80682 8.90822L15.4364 10.8811L16.41 5.94371L10.5557 4.27472L8.80682 8.90822ZM25.0666 25.1886C23.0054 25.1885 21.0251 24.3868 19.5445 22.9529C20.2517 21.8115 20.7465 20.5515 21.0049 19.2338L22.8026 10.1187L26.6119 9.20956L24.9867 4.44729L23.7968 4.74605C23.8414 3.40233 23.3589 2.09441 22.4523 1.10158L25.7697 0.269667C26.2399 0.151222 26.7374 0.213932 27.1635 0.445346C27.5896 0.676761 27.9131 1.05995 28.0697 1.51883L32.5667 14.6982C33.173 16.4763 33.1286 18.4118 32.4414 20.1603C31.7542 21.9087 30.4688 23.3565 28.8141 24.2459L30.3491 30.3681L32.2679 29.8865C32.7649 29.7618 33.291 29.8396 33.7305 30.1029C34.1701 30.3661 34.4871 30.7932 34.6117 31.2902C34.7364 31.7871 34.6585 32.3132 34.3953 32.7528C34.132 33.1923 33.705 33.5093 33.208 33.6339L29.4914 34.5663C29.4414 34.5814 29.3907 34.5942 29.3395 34.6049L25.6074 35.5425C25.1105 35.6671 24.5844 35.5893 24.1448 35.326C23.7053 35.0628 23.3883 34.6357 23.2636 34.1388C23.139 33.6418 23.2168 33.1157 23.4801 32.6762C23.7433 32.2366 24.1704 31.9196 24.6673 31.795L26.6016 31.3082L25.0666 25.1886Z" fill="#D1AC53"/>
</svg>
