<svg width="50" height="50" viewBox="0 0 50 50" fill="none" xmlns="http://www.w3.org/2000/svg">
<g id="Group 57">
<path id="Vector" fill-rule="evenodd" clip-rule="evenodd" d="M17.677 8.69162C17.677 10.1555 18.3866 10.7761 19.2395 11.9145C19.5623 12.3453 19.8697 12.7551 20.202 13.1981L23.0676 17.0711C23.3781 17.5275 23.7056 17.934 24.0248 18.36C24.1806 18.568 24.3123 18.7471 24.4857 18.9735C24.6954 19.2474 24.8738 19.3672 24.9039 19.7272C24.4681 19.8436 13.2617 27.4234 11.9736 28.2822C11.5682 28.5524 10.4251 29.3956 10.0596 29.4932C10.2585 29.7647 10.3898 29.7182 10.7989 29.828C11.7886 30.0936 12.3697 30.4416 13.1854 30.8596C14.975 31.7769 15.7764 33.4743 18.2913 31.5724L20.0859 30.4372C20.4026 30.2663 20.7731 30.1502 21.1221 30.0084C23.8904 28.8838 27.3956 29.1196 30.0153 30.4365C32.3771 31.6234 33.2583 33.3574 35.4718 31.8578C35.9383 31.5419 36.243 31.291 36.751 30.9886C37.6606 30.4469 38.7055 29.9542 39.8457 29.6884C39.6146 29.2518 39.2561 28.8374 38.9527 28.433C37.8791 27.0019 25.0306 9.94783 24.9039 9.47294L31.058 5.37296C33.6117 3.5513 31.9153 0 29.689 0C28.0173 0 27.4241 0.696286 25.8609 1.73838L19.8255 5.76194C19.2841 6.12277 18.8352 6.37057 18.3819 6.85756C18.0288 7.23677 17.677 7.97958 17.677 8.69162Z" fill="#D1AC53"/>
<path id="Vector_2" fill-rule="evenodd" clip-rule="evenodd" d="M0 43.945V48.7303C0 49.3292 0.67076 49.9999 1.26962 49.9999H48.7321C49.1985 49.9999 49.6261 49.613 49.8095 49.3194C49.9264 49.132 49.9795 48.9371 50.0017 48.7226V47.6561C50.001 46.5157 50.0015 45.3753 50.0017 44.2349V44.177V44.119V44.0611V44.003V43.945C47.2085 43.7126 45.7047 40.9176 42.7748 40.9176C41.6066 40.9176 40.3636 41.3354 39.4692 42.0065C36.2571 44.4165 32.8913 44.8878 29.3887 42.7799C27.9753 41.9295 26.589 40.4269 23.8892 41.0755C23.4451 41.1823 23.1862 41.2959 22.8179 41.4692C22.6353 41.5551 22.5017 41.5977 22.347 41.6818C20.8997 42.4699 19.2873 44.5645 15.0634 44.0188C11.5898 43.5701 10.5412 40.9176 7.51973 40.9176C6.59125 40.9176 5.17854 41.3217 4.49028 41.7944C3.31079 42.6042 1.6287 43.9088 0 43.945Z" fill="#D1AC53"/>
<path id="Vector_3" fill-rule="evenodd" clip-rule="evenodd" d="M0 41.0187C1.40468 40.6914 2.27702 39.7158 3.2545 39.1948C6.14393 37.6546 9.2339 37.6861 12.0444 39.4238C13.8005 40.5095 14.0093 41.214 16.6998 41.214C19.5938 41.214 20.3202 38.0888 25.3914 38.0888C29.3987 38.0888 30.7667 41.214 33.4972 41.214C34.6743 41.214 35.381 41.1409 36.4603 40.5636C38.3025 39.5785 39.0094 38.0888 43.0679 38.0888C44.4295 38.0888 46.0021 38.6652 46.8725 39.1672C47.9082 39.7644 48.6654 40.6097 50.0017 40.9209V40.8584V40.7958V40.7332C50.0015 39.4715 50.0001 38.2097 50.0017 36.9481V36.8119C49.9977 34.8714 49.7985 35.2754 48.5209 34.3937C48.1195 34.1166 47.8102 33.8622 47.3847 33.5767C44.5488 31.6729 41.0124 31.6987 38.1657 33.4797C36.8596 34.2967 36.1511 35.2154 33.9646 35.3232C30.6846 35.485 29.6075 32.1316 25.0984 32.1316C23.2695 32.1316 21.6431 32.7722 20.5278 33.518C19.292 34.3446 18.2306 35.3298 16.3094 35.3263C12.8892 35.3199 11.9937 32.1316 7.51973 32.1316C4.80984 32.1316 3.40486 33.1746 1.58247 34.3977C0.234235 35.3024 0.00758419 35.0538 0 36.7588V36.9681C0.0032087 38.2754 0.00014585 39.5831 0 40.8905V40.9545V41.0187Z" fill="#D1AC53"/>
<path id="Vector_4" fill-rule="evenodd" clip-rule="evenodd" d="M35.2539 17.3828V17.9688C35.2539 20.8508 37.9384 23.5353 40.8204 23.5353H41.4064C44.2765 23.5353 46.9731 20.845 46.9731 17.9688V17.3828C46.9731 14.518 44.2712 11.8162 41.4064 11.8162H40.8204C37.9556 11.8162 35.2539 14.518 35.2539 17.3828Z" fill="#D1AC53"/>
</g>
</svg>
