<svg width="78" height="77" viewBox="0 0 78 77" fill="none" xmlns="http://www.w3.org/2000/svg">
<path id="Vector" d="M18.9394 64.7122H28.6894V46.6837H33.5644V34.4879C33.5644 32.49 32.8591 30.8061 31.4486 29.4363C30.0381 28.0665 28.3059 27.3832 26.2519 27.3863H21.3769C19.3196 27.3863 17.5857 28.0697 16.1752 29.4363C14.768 30.8061 14.0644 32.49 14.0644 34.4879V46.6837H18.9394V64.7122ZM23.8144 23.0118C25.2704 23.0118 26.4924 22.5305 27.4804 21.5678C28.4684 20.6051 28.964 19.4168 28.9672 18.0028C28.9705 16.5888 28.4749 15.4021 27.4804 14.4426C26.4859 13.4831 25.2622 13.0017 23.8095 12.9986C22.3567 12.9954 21.1347 13.4768 20.1435 14.4426C19.1522 15.4084 18.6566 16.5951 18.6566 18.0028C18.6566 19.42 19.1522 20.6083 20.1435 21.5678C21.1347 22.5273 22.3567 23.0086 23.8095 23.0118M47.346 31.5715H62.907L55.1265 19.461L47.346 31.5715ZM55.1265 57.8852L62.907 45.7747H47.346L55.1265 57.8852ZM7.878 76.5481C5.63225 76.5481 3.75862 75.819 2.25712 74.3608C0.755624 72.9026 0.00325 71.0815 0 68.8973V8.44885C0 6.26788 0.752374 4.4483 2.25712 2.99011C3.76187 1.53192 5.6355 0.801252 7.878 0.798096H70.1269C72.3694 0.798096 74.243 1.52877 75.7477 2.99011C77.2525 4.45145 78.0032 6.27103 78 8.44885V68.9021C78 71.0799 77.2492 72.8995 75.7477 74.3608C74.2462 75.8222 72.371 76.5512 70.122 76.5481H7.878ZM7.878 71.8137H70.1269C71.0011 71.8137 71.7194 71.5407 72.2816 70.9947C72.8439 70.4486 73.125 69.7511 73.125 68.9021V8.44411C73.125 7.59508 72.8439 6.89755 72.2816 6.35152C71.7194 5.80549 71.0011 5.53247 70.1269 5.53247H7.87312C6.99887 5.53247 6.28062 5.80549 5.71837 6.35152C5.15612 6.89755 4.875 7.59666 4.875 8.44885V68.9021C4.875 69.7511 5.15612 70.4486 5.71837 70.9947C6.28062 71.5407 7.0005 71.8137 7.878 71.8137Z" fill="#E2BA64"/>
</svg>
