<svg width="66" height="66" viewBox="0 0 66 66" fill="none" xmlns="http://www.w3.org/2000/svg">
<path id="Vector" d="M29.1628 6.53627C26.3133 6.53627 23.5804 7.64211 21.5655 9.61053C19.5506 11.5789 18.4186 14.2487 18.4186 17.0324C18.4186 19.8162 19.5506 22.4859 21.5655 24.4544C23.5804 26.4228 26.3133 27.5286 29.1628 27.5286C32.0123 27.5286 34.7452 26.4228 36.7601 24.4544C38.775 22.4859 39.907 19.8162 39.907 17.0324C39.907 14.2487 38.775 11.5789 36.7601 9.61053C34.7452 7.64211 32.0123 6.53627 29.1628 6.53627ZM12.2791 17.0324C12.2791 12.658 14.0579 8.46265 17.2242 5.36943C20.3905 2.27621 24.6849 0.538452 29.1628 0.538452C33.6406 0.538452 37.9351 2.27621 41.1014 5.36943C44.2677 8.46265 46.0465 12.658 46.0465 17.0324C46.0465 21.4069 44.2677 25.6022 41.1014 28.6955C37.9351 31.7887 33.6406 33.5264 29.1628 33.5264C24.6849 33.5264 20.3905 31.7887 17.2242 28.6955C14.0579 25.6022 12.2791 21.4069 12.2791 17.0324ZM44.5116 41.0237V51.9217C44.5117 52.4201 44.6389 52.9105 44.8817 53.3488C45.1245 53.787 45.4752 54.1592 45.9022 54.4318L52.186 58.4414L58.4699 54.4318C58.8969 54.1592 59.2476 53.787 59.4904 53.3488C59.7332 52.9105 59.8604 52.4201 59.8605 51.9217V41.0237H44.5116ZM38.3721 35.0259H66V51.9217C65.9995 53.417 65.6175 54.8885 64.8885 56.2033C64.1596 57.518 63.1067 58.6346 61.8251 59.452L52.186 65.6058L42.547 59.452C41.2654 58.6346 40.2125 57.518 39.4836 56.2033C38.7546 54.8885 38.3726 53.417 38.3721 51.9217V35.0259ZM18.4186 42.5232C15.162 42.5232 12.0388 43.787 9.73599 46.0366C7.43322 48.2862 6.13953 51.3374 6.13953 54.5188H32.386V60.5166H0V54.5188C0 49.7466 1.94053 45.1699 5.39468 41.7955C8.84884 38.4211 13.5337 36.5253 18.4186 36.5253H32.2326V42.5232H18.4186Z" fill="#E2BA64"/>
</svg>
